# xmcd
#
# Track frame offsets:
#	150
#	22764
#	41530
#	60918
#	87150
#	105454
#	124097
#	144036
#	157808
#	178888
#	202666
#	219668
#
# Disc length: 3136 seconds
#
# Revision: 0
# Processed by: cddbd v1.5.2PL0 Copyright (c) Steve Scherf et al.
# Submitted via: dBpowerAMP V4.0
#
DISCID=8a0c3e0c
DTITLE=The Yearlings - Sweet Runaway
DYEAR=2010
DGENRE=Blues
TTITLE0=Butterfly
TTITLE1=Distraction
TTITLE2=Drive All Night
TTITLE3=Wildflower Girl
TTITLE4=Shotgun Eye
TTITLE5=Sweet Runaway
TTITLE6=Sally Anne
TTITLE7=Your Sweet Town
TTITLE8=Rolling Against The Wheel
TTITLE9=Lay Your Head Down
TTITLE10=Still Got The Taste
TTITLE11=Hard Floor Tonight Blues
EXTD=www.theyearlings.net
EXTT0=
EXTT1=
EXTT2=
EXTT3=
EXTT4=
EXTT5=
EXTT6=
EXTT7=
EXTT8=
EXTT9=
EXTT10=
EXTT11=
PLAYORDER=
